<svg width="17" height="11" viewBox="0 0 17 11" fill="none" xmlns="http://www.w3.org/2000/svg">
<path d="M14.4708 1.72707C14.4708 0.899239 13.7206 0.221924 12.8036 0.221924H10.3029V1.72707H12.8036V3.72138L9.90273 6.99507H6.96846V3.23221H3.63407C1.79182 3.23221 0.299683 4.57932 0.299683 6.2425V8.50022H1.96688C1.96688 9.74949 3.0839 10.7579 4.46767 10.7579C5.85144 10.7579 6.96846 9.74949 6.96846 8.50022H10.703L14.4708 4.24819V1.72707ZM4.46767 9.25279C4.00919 9.25279 3.63407 8.91413 3.63407 8.50022H5.30127C5.30127 8.91413 4.92615 9.25279 4.46767 9.25279Z" fill="black"/>
<path d="M6.96848 0.974487H2.80048V2.47961H6.96848V0.974487Z" fill="black"/>
<path d="M14.4708 6.24249C13.0871 6.24249 11.97 7.25093 11.97 8.5002C11.97 9.74946 13.0871 10.7579 14.4708 10.7579C15.8546 10.7579 16.9716 9.74946 16.9716 8.5002C16.9716 7.25093 15.8546 6.24249 14.4708 6.24249ZM14.4708 9.25277C14.0123 9.25277 13.6372 8.91411 13.6372 8.5002C13.6372 8.08629 14.0123 7.74763 14.4708 7.74763C14.9293 7.74763 15.3044 8.08629 15.3044 8.5002C15.3044 8.91411 14.9293 9.25277 14.4708 9.25277Z" fill="black"/>
</svg>
